Coordinates
version=1
nRows=29
nColumns=22
inDegrees=yes

Units are S.I. units (second, meters, Newtons, ...)
If the header above contains a line with 'inDegrees', this indicates whether rotational values are in degrees (yes) or radians (no).

endheader
time	pelvis_tilt	pelvis_list	pelvis_rotation	pelvis_tx	pelvis_ty	pelvis_tz	hip_flexion_r	hip_adduction_r	hip_rotation_r	knee_angle_r	ankle_angle_r	subtalar_angle_r	hip_flexion_l	hip_adduction_l	hip_rotation_l	knee_angle_l	ankle_angle_l	subtalar_angle_l	lumbar_extension	lumbar_bending	lumbar_rotation
      0.01000000	      1.66943255	     -1.70132464	      1.19727773	      0.13311984	      1.08878668	      1.18700411	     -2.55073183	      2.63074778	     -2.65316799	     -8.87261711	     10.87347209	     -0.88303657	     -3.01693298	     -0.80487429	     -1.25396983	    -10.77969940	     12.56521564	     -4.02809469	     -3.49644743	     -0.64622186	     -5.44679801
      0.02000000	      1.66553243	     -1.69915694	      1.19705389	      0.13316845	      1.08877141	      1.18698459	     -2.54973174	      2.62734592	     -2.65105660	     -8.87230335	     10.87356566	     -0.88309297	     -3.01602686	     -0.80154770	     -1.25596628	    -10.77860505	     12.56637311	     -4.02928260	     -3.49960634	     -0.63586781	     -5.44689645
      0.03000000	      1.66114697	     -1.69697033	      1.19552802	      0.13322609	      1.08875393	      1.18696934	     -2.54810461	      2.62406778	     -2.64909328	     -8.87281747	     10.87440428	     -0.88338908	     -3.01530451	     -0.79818799	     -1.25739114	    -10.77788760	     12.56800638	     -4.03050609	     -3.50356407	     -0.62399220	     -5.44838890
      0.04000000	      1.65653349	     -1.69487363	      1.19396392	      0.13329020	      1.08873738	      1.18695716	     -2.54594090	      2.62096634	     -2.64728885	     -8.87436950	     10.87603946	     -0.88394284	     -3.01440584	     -0.79492669	     -1.25831150	    -10.77748484	     12.57026231	     -4.03170945	     -3.50839357	     -0.61082959	     -5.45060285
      0.05000000	      1.64540679	     -1.70941954	      1.19103747	      0.13334286	      1.08869800	      1.18696162	     -2.52679416	      2.63668535	     -2.64251092	     -8.89401055	     10.90034339	     -0.89367052	     -2.99823465	     -0.81083036	     -1.26492461	    -10.79293875	     12.60394779	     -4.05076542	     -3.50799753	     -0.57813762	     -5.45874457
      0.06000000	      1.64044702	     -1.70589927	      1.19208671	      0.13342117	      1.08868119	      1.18695291	     -2.52539958	      2.63252320	     -2.64210779	     -8.89488986	     10.90026770	     -0.89414846	     -2.99696921	     -0.80672140	     -1.26473623	    -10.79288040	     12.60462073	     -4.05098309	     -3.51312543	     -0.56625968	     -5.45889262
      0.07000000	      1.63618749	     -1.70283804	      1.19266382	      0.13350345	      1.08866357	      1.18694578	     -2.52324840	      2.62879549	     -2.64151560	     -8.89838644	     10.90142183	     -0.89494175	     -2.99597525	     -0.80290835	     -1.26317387	    -10.79491769	     12.60636925	     -4.05121382	     -3.51874628	     -0.55243732	     -5.45990410
      0.08000000	      1.62896874	     -1.71485169	      1.20173980	      0.13356090	      1.08862996	      1.18694092	     -2.50381775	      2.64209647	     -2.65789429	     -8.92763045	     10.92801796	     -0.90589465	     -2.97957184	     -0.81670097	     -1.24895269	    -10.81733053	     12.64016545	     -4.05503148	     -3.52581060	     -0.52290203	     -5.47306911
      0.09000000	      1.62582688	     -1.71375658	      1.20663595	      0.13364108	      1.08861059	      1.18694424	     -2.49731620	      2.64172164	     -2.65519646	     -8.94267931	     10.92962196	     -0.90862881	     -2.97400062	     -0.81654172	     -1.23957290	    -10.82937819	     12.64515173	     -4.05453383	     -3.53310793	     -0.50858518	     -5.47640984
      0.10000000	      1.62240619	     -1.71044662	      1.21110630	      0.13375379	      1.08859044	      1.18694324	     -2.49735564	      2.63877213	     -2.65467210	     -8.94710530	     10.93134412	     -0.90934123	     -2.97400580	     -0.81368533	     -1.23774154	    -10.83294307	     12.64703678	     -4.05439867	     -3.53518006	     -0.49591212	     -5.47486271
      0.11000000	      1.62384253	     -1.71635241	      1.21547940	      0.13382270	      1.08856793	      1.18696262	     -2.48736186	      2.64667243	     -2.65552953	     -8.97677643	     10.94846577	     -0.91376225	     -2.96558338	     -0.82170639	     -1.21546991	    -10.86010131	     12.66383958	     -4.05420553	     -3.55195121	     -0.47529704	     -5.47435725
      0.12000000	      1.62123331	     -1.72366160	      1.22839240	      0.13392579	      1.08853500	      1.18697244	     -2.47666110	      2.65616625	     -2.66742561	     -9.00385689	     10.97115631	     -0.91990599	     -2.95507558	     -0.83253967	     -1.19817598	    -10.88384103	     12.69339136	     -4.05378584	     -3.55712662	     -0.45245712	     -5.47599498
      0.13000000	      1.61925931	     -1.71997812	      1.23412019	      0.13408548	      1.08851165	      1.18700282	     -2.47920488	      2.65503915	     -2.66660570	     -9.01164316	     10.97216407	     -0.92052013	     -2.95758175	     -0.83198990	     -1.19619106	    -10.89020089	     12.69563412	     -4.05354085	     -3.55252071	     -0.44452501	     -5.47461968
      0.14000000	      1.62084612	     -1.72587732	      1.24247257	      0.13416612	      1.08848078	      1.18703952	     -2.46179329	      2.66393445	     -2.66841449	     -9.05727198	     10.99330522	     -0.92556155	     -2.94463476	     -0.84187615	     -1.16650572	    -10.92732470	     12.72165454	     -4.05186881	     -3.56855468	     -0.42512480	     -5.46974171
      0.15000000	      1.61473883	     -1.73297694	      1.25471152	      0.13429143	      1.08843455	      1.18707767	     -2.43768197	      2.67450298	     -2.68199213	     -9.10490308	     11.02510894	     -0.93181847	     -2.93037251	     -0.85394053	     -1.14658102	    -10.95446548	     12.75842267	     -4.04899860	     -3.56728929	     -0.40477869	     -5.46893126
      0.16000000	      1.58009318	     -1.73788706	      1.27045947	      0.13443397	      1.08834383	      1.18711759	     -2.38063429	      2.68188523	     -2.71367179	     -9.15790810	     11.06855829	     -0.94096799	     -2.88164087	     -0.86463313	     -1.13404901	    -10.98975923	     12.80469990	     -4.03729318	     -3.52849393	     -0.38712618	     -5.47360955
      0.17000000	      1.58036418	     -1.73575074	      1.27503432	      0.13457153	      1.08831632	      1.18719099	     -2.36297877	      2.68465539	     -2.69896976	     -9.20646579	     11.07252411	     -0.94231715	     -2.87710218	     -0.86753201	     -1.11417317	    -11.01487671	     12.80507023	     -4.03481530	     -3.53523378	     -0.37975637	     -5.46819941
      0.18000000	      1.52190732	     -1.73053069	      1.27674897	      0.13469440	      1.08818680	      1.18727075	     -2.25739171	      2.68066732	     -2.71210859	     -9.30182679	     11.13449866	     -0.94761989	     -2.79694987	     -0.86737146	     -1.11177335	    -11.06267958	     12.84143529	     -4.02625250	     -3.47330271	     -0.37551410	     -5.45992712
      0.19000000	      1.52597602	     -1.73278619	      1.28097782	      0.13484900	      1.08816022	      1.18736826	     -2.23272184	      2.68944532	     -2.69946845	     -9.37269314	     11.14789671	     -0.94993908	     -2.80202726	     -0.87634429	     -1.08780745	    -11.07890420	     12.84459851	     -4.02556717	     -3.48586509	     -0.36303352	     -5.44805249
      0.20000000	      1.47737937	     -1.72291991	      1.27698425	      0.13499447	      1.08803779	      1.18747819	     -2.12641955	      2.68144263	     -2.71275460	     -9.49116740	     11.22768902	     -0.95698209	     -2.73695188	     -0.87212665	     -1.08828240	    -11.12221262	     12.87912828	     -4.02848971	     -3.43698549	     -0.36368555	     -5.43374925
      0.21000000	      1.46963533	     -1.72643019	      1.27744379	      0.13516832	      1.08798148	      1.18760278	     -2.07115695	      2.69148031	     -2.71666804	     -9.59704474	     11.27499577	     -0.96411545	     -2.72999722	     -0.88323294	     -1.06495004	    -11.14010605	     12.89447852	     -4.02902898	     -3.43727369	     -0.34827931	     -5.41117846
      0.22000000	      1.45261975	     -1.71785664	      1.27827046	      0.13533024	      1.08790332	      1.18774186	     -1.99387976	      2.68914363	     -2.72133011	     -9.72651490	     11.34325314	     -0.97526336	     -2.70172890	     -0.88227591	     -1.04993232	    -11.17811073	     12.92027903	     -4.03086619	     -3.43273838	     -0.34725482	     -5.40016338
      0.23000000	      1.42733969	     -1.70625670	      1.28103254	      0.13549803	      1.08780901	      1.18789235	     -1.90136627	      2.68417690	     -2.72505019	     -9.86838081	     11.41404512	     -0.99109641	     -2.66214524	     -0.87891542	     -1.03105398	    -11.22098429	     12.94409560	     -4.03084728	     -3.42112594	     -0.34891671	     -5.39400218
      0.24000000	      1.40444576	     -1.69256743	      1.28563621	      0.13567432	      1.08771387	      1.18805702	     -1.80644895	      2.67876186	     -2.72650225	    -10.02026592	     11.48633597	     -1.01061895	     -2.62318144	     -0.87406213	     -1.00947108	    -11.26815510	     12.96875013	     -4.02954029	     -3.41562596	     -0.35232265	     -5.39378721
      0.25000000	      1.34733165	     -1.66528581	      1.29366938	      0.13584769	      1.08756767	      1.18823706	     -1.66592283	      2.65969430	     -2.72319685	    -10.19035442	     11.56060615	     -1.04527200	     -2.53825897	     -0.85543385	     -0.98939504	    -11.33125547	     12.99244190	     -4.02276271	     -3.37374868	     -0.37295896	     -5.41655751
      0.26000000	      1.34994392	     -1.65838006	      1.29946905	      0.13606264	      1.08750125	      1.18843448	     -1.59218461	      2.66500202	     -2.72286475	    -10.35716230	     11.63972544	     -1.06389586	     -2.53360843	     -0.85976822	     -0.96059421	    -11.36884109	     13.01794029	     -4.02143316	     -3.40422166	     -0.36726241	     -5.40837067
      0.27000000	      1.30415549	     -1.61750912	      1.30770839	      0.13626958	      1.08735640	      1.18864370	     -1.45243701	      2.63351119	     -2.72341137	    -10.55361564	     11.74373110	     -1.10358723	     -2.46508532	     -0.82812002	     -0.94298026	    -11.42718103	     13.04533528	     -4.01313809	     -3.38195414	     -0.40236334	     -5.43734615
      0.28000000	      1.27292583	     -1.59131397	      1.31340596	      0.13649891	      1.08722732	      1.18887792	     -1.32753100	      2.61971611	     -2.72065361	    -10.75252254	     11.84898599	     -1.13675174	     -2.41665752	     -0.81297685	     -0.92067167	    -11.48066051	     13.07555079	     -4.00694430	     -3.37969139	     -0.41998980	     -5.44768257
      0.29000000	      1.26720212	     -1.57554739	      1.31535513	      0.13677061	      1.08713132	      1.18914418	     -1.23316922	      2.61942556	     -2.71825520	    -10.94815883	     11.96226827	     -1.15648887	     -2.40906525	     -0.81078070	     -0.89489897	    -11.51384738	     13.10355191	     -4.00416900	     -3.40659276	     -0.42464845	     -5.44357582
